# xmcd
#
# Track frame offsets:
#	150
#	13602
#	28762
#	41937
#	55023
#	68933
#	82299
#	100788
#	117119
#	129501
#	149278
#	166032
#	178495
#	191561
#	206489
#	221656
#
# Disc length: 3130 seconds
#
# Revision: 4
# Processed by: cddbd v1.5.2PL0 Copyright (c) Steve Scherf et al.
# Submitted via: audiograbber 1.83.01
#
DISCID=ec0c3810
DTITLE=MH1020 Monster Hits - Female Classic Country (MH)
DYEAR=2008
DGENRE=Karaoke
TTITLE0=Janie Frickie - He's A Heartache (Looking For A Place To Happen) (MH)
TTITLE1=Anne Murray  - Could I Have This Dance (MH)
TTITLE2=Tanya Tucker - San Antonio Stroll (MH)
TTITLE3=Tanya Tucker - Delta Dawn (MH)
TTITLE4=The Judds - Have Mercy (MH)
TTITLE5=Crystal Gayle - Talking In Your Sleep (MH)
TTITLE6=Juice Newton - Break it To Me Gently (MH)
TTITLE7=Barbara Mandrell - I Was Country When Country Wasn't Cool (MH)
TTITLE8=Crystal Gayle - Don't It Make My Brown Eyes Blue (MH)
TTITLE9=The Judds - Granda (Tell Me 'Bout The Good Old Days) (MH)
TTITLE10=Reba McEntire - Somebody Should Leave (MH)
TTITLE11=The Judds - Girls Night Out (MH)
TTITLE12=Dolly Parton - 9 To 5 (MH)
TTITLE13=Holly Dunn - Daddy's Hands (MH)
TTITLE14=The Judds - Mama He's Crazy (MH)
TTITLE15=Tanya Tucker - Strong Enough To Bend (MH)
EXTD=
EXTT0=
EXTT1=
EXTT2=
EXTT3=
EXTT4=
EXTT5=
EXTT6=
EXTT7=
EXTT8=
EXTT9=
EXTT10=
EXTT11=
EXTT12=
EXTT13=
EXTT14=
EXTT15=
PLAYORDER=
